<svg xmlns="http://www.w3.org/2000/svg" width="88" height="42" viewBox="0 0 88 42" fill="none">
  <path d="M81.0302 29.3452L84.5113 34.2264C84.7982 34.6257 85.242 34.8467 85.6972 34.8506H87.4186L82.151 27.4648H80.6132C80.1618 27.4687 79.718 27.6897 79.4273 28.089L74.6073 34.8506H77.1053L81.0302 29.3452Z" fill="#F37725"/>
  <path d="M88.0001 38.3671H73.9914V39.883H88.0001V38.3671Z" fill="#F37725"/>
  <path d="M61.0232 28.942H67.6833V27.4609H60.4494C59.604 27.4609 58.9154 28.1588 58.9154 29.0156V35.7268C58.9154 36.5875 59.604 37.2815 60.4494 37.2815H67.9434V35.8005H61.0232V28.942Z" fill="#F37725"/>
  <path d="M69.2555 31.1596H64.3016V32.6252H69.2555V41.6315H69.8791C70.7168 41.6315 71.3978 40.9453 71.3978 40.0962V27.4648H69.2555V31.1635V31.1596Z" fill="#F37725"/>
  <path d="M47.443 39.4875H56.295V37.4056C56.295 36.5759 55.6332 35.9052 54.8145 35.9052H45.2854V37.3435H54.1336V38.053H45.2854V40.135C45.2854 40.9647 45.9472 41.6354 46.7658 41.6354H56.6622V40.197H47.443V39.4875Z" fill="#F37725"/>
  <path d="M47.1216 35.3313H49.3863V34.2613H53.2691V32.8384H43.235V34.2613H47.1216V35.3313Z" fill="#F37725"/>
  <path d="M56.295 27.4609H54.1336V35.4942H56.295V27.4609Z" fill="#F37725"/>
  <path d="M48.2386 29.0505L50.488 31.8536C50.6334 32.0359 50.8552 32.1405 51.0848 32.1405H52.9133L49.2141 27.4609H47.7413C47.4391 27.4609 47.1522 27.6005 46.9609 27.8409L43.564 32.1405H45.7559L48.2348 29.0505H48.2386Z" fill="#F37725"/>
  <path d="M7.79621 30.826C6.32342 30.1282 5.11459 29.5621 5.11459 28.4222C5.11459 27.5499 5.80317 26.9141 7.16119 26.9141C7.66232 26.9141 8.07164 26.9761 8.49244 27.0537C8.71431 27.0924 8.94766 27.1234 9.14276 27.1234C10.3286 27.1234 11.0019 26.4062 11.4457 25.0453L11.6293 24.487C11.4418 24.4095 9.49852 23.5449 6.96992 23.5449C2.94558 23.5449 0.818641 26.1619 0.818641 28.8759C0.818641 30.2483 1.24326 31.237 1.90506 32.0201C2.75813 33.0243 3.97461 33.6834 5.11459 34.2456C6.77482 35.0675 8.27056 35.6801 8.27056 36.9014C8.27056 37.9869 7.16502 38.6034 5.6884 38.6034C3.66475 38.6034 1.88976 37.4286 1.66406 37.2891L0 40.4527C0.298383 40.6194 2.43679 41.9997 5.96383 41.9997C9.7204 41.9997 12.5627 39.813 12.5627 36.4555C12.5627 33.098 9.92697 31.8728 7.79239 30.826" fill="#E21936"/>
  <path d="M22.4896 32.3846L29.3066 23.9171H24.4483L19.0123 31.2215H18.9282V23.9171H14.9268V41.8562H15.1678C16.8969 41.8562 18.9588 41.042 18.9588 38.1149V33.9974H19.0391L24.5783 41.6352H29.67L22.4858 32.3885L22.4896 32.3846Z" fill="#E21936"/>
  <path d="M29.5323 4.69922C28.1245 4.97061 26.0358 6.26555 26.0435 8.55688C26.0473 10.6389 27.7267 11.8989 27.7343 14.6283C27.742 16.6793 26.6249 18.0634 25.4199 18.8311C25.9096 18.7845 26.4413 18.7574 27.0304 18.7574C28.2622 18.7496 29.0043 18.8698 29.0541 18.8815L35.3775 11.0188C33.6216 8.35528 31.5712 6.28493 29.5399 4.69922" fill="#E21936"/>
  <path d="M34.8458 25.9299C35.6415 24.6777 35.7447 22.6732 35.8098 20.6339C35.8863 18.7341 36.2765 17.3035 38.7859 17.2958C39.3406 17.2958 39.8724 17.3694 40.8287 17.3655C44.505 17.35 46.9035 16.0667 48.3992 15.2254C45.3504 13.2559 40.8938 11.2437 35.3698 11.0149C35.0103 12.0462 32.21 19.9283 31.9958 20.568C32.0303 20.6068 32.5199 21.165 33.132 22.2506C34.0348 23.7433 34.5206 25.0072 34.8419 25.9299" fill="#E21936"/>
  <path d="M21.4911 19.486C21.1736 19.486 21.013 19.2728 20.9709 18.8967C20.9326 18.5245 19.3489 3.86542 19.1155 1.64775C19.0811 1.32207 19.0046 0.728885 19.0008 0.515648C18.997 0.178344 19.2188 0 19.4751 0C20.2249 0 24.3066 0.965385 28.6408 4.04376C27.3938 4.40045 25.1329 5.71477 25.1444 8.44034C25.1521 10.8519 26.8582 12.1778 26.8659 14.5971C26.8773 18.5323 22.4169 19.486 21.4911 19.486Z" fill="#F37725"/>
  <path d="M35.2053 26.9765C35.2741 27.1587 35.3392 27.3138 35.4004 27.4185C35.4998 27.593 35.6299 27.6705 35.7906 27.6666C35.89 27.6666 36.0163 27.6317 36.1502 27.5658C36.483 27.4146 49.6845 21.1842 51.6737 20.2537C51.9645 20.1141 52.5115 19.866 52.6913 19.7574C52.8749 19.6489 52.9629 19.4899 52.9629 19.331C52.9629 19.2418 52.9361 19.1487 52.8864 19.0673C52.6377 18.6602 51.36 17.2839 49.2254 15.7835C47.5308 16.7295 44.8836 18.195 40.9434 18.2105C39.9794 18.2105 39.7575 18.1485 39.0996 18.1485C37.1754 18.1562 36.6972 18.9898 36.6283 20.6996C36.6169 21.0214 36.613 21.4556 36.5939 21.9325C36.5327 23.46 36.3567 25.5653 35.2014 26.9726" fill="#F37725"/>
</svg>