<?xml version="1.0" encoding="UTF-8" standalone="no"?>
<!-- Created with Inkscape (http://www.inkscape.org/) -->

<svg
   width="99.09626mm"
   height="22.317921mm"
   viewBox="0 0 99.09626 22.317921"
   version="1.1"
   id="svg5"
   xmlns="http://www.w3.org/2000/svg"
   xmlns:svg="http://www.w3.org/2000/svg">
  <defs
     id="defs2" />
  <g
     id="layer1"
     transform="translate(-26.04435,-189.59486)">
    <path
       d="m 32.797886,201.99359 2.326922,-8.11389 c 0.01693,-0.0427 0.135114,-0.57608 0.679803,-0.57608 h 0.0039 c 0.546453,0 0.658989,0.5334 0.674512,0.57608 l 2.332919,8.11389 z m 7.157861,-9.29534 c -0.407811,-1.35678 -1.648883,-3.10339 -4.147256,-3.10339 h -0.0039 c -2.502253,0 -3.745794,1.74661 -4.149725,3.10339 l -5.593292,18.27424 c -0.0028,0.001 -0.01658,0.1076 -0.01658,0.1076 -0.01094,0.21061 0.118533,0.38735 0.303389,0.40922 l 0.04127,0.004 h 3.398308 c 0.170039,0 0.310445,-0.11606 0.365478,-0.29809 l 1.6764,-5.84342 h 7.949494 l 1.680633,5.84342 c 0.04798,0.18203 0.191559,0.29809 0.362656,0.29809 h 3.399367 l 0.03739,-0.004 c 0.186267,-0.0219 0.321028,-0.19861 0.306211,-0.40922 l -0.01376,-0.1076 z"
       style="fill:#204789;fill-opacity:1;fill-rule:nonzero;stroke:none;stroke-width:0.352778"
       id="path943" />
    <path
       d="m 54.128526,194.65895 c -1.246364,0 -2.319161,0.15981 -3.262136,0.44203 v -5.19148 c 0,-0.17815 -0.135114,-0.31432 -0.311503,-0.31432 h -3.322461 c -0.173919,0 -0.311503,0.13617 -0.311503,0.31432 v 21.27779 c 0,0.1771 0.137584,0.30622 0.311503,0.30622 h 3.322461 c 0.176389,0 0.311503,-0.12912 0.311503,-0.30622 v -10.96433 c 0,-0.90699 0,-1.84609 3.262136,-1.84609 3.250494,0 3.250494,0.9391 3.250494,1.84609 v 10.96433 c 0,0.1771 0.139348,0.30622 0.311856,0.30622 h 3.319639 c 0.176741,0 0.315736,-0.12912 0.315736,-0.30622 v -10.96433 c 0,-2.54635 -1.247775,-5.56401 -7.197725,-5.56401"
       style="fill:#204789;fill-opacity:1;fill-rule:nonzero;stroke:none;stroke-width:0.352778"
       id="path947" />
    <path
       d="m 121.19232,206.35265 c 0,0.90311 0,1.83903 -3.26355,1.83903 -3.24979,0 -3.24979,-0.93592 -3.24979,-1.83903 v -6.12951 c 0,-0.91581 0,-1.84715 3.24979,-1.84715 3.26355,0 3.26355,0.93134 3.26355,1.84715 z m -3.26355,-11.69352 c -1.23966,0 -2.31246,0.1598 -3.24979,0.44167 v -5.19112 c 0,-0.16722 -0.13511,-0.31468 -0.31679,-0.31468 h -3.32669 c -0.17216,0 -0.31045,0.14746 -0.31045,0.31468 v 16.44297 c 0,2.54035 1.24883,5.56013 7.20372,5.56013 5.95983,0 7.21184,-3.01978 7.21184,-5.56013 v -6.12951 c 0,-2.53577 -1.25201,-5.56401 -7.21184,-5.56401"
       style="fill:#204789;fill-opacity:1;fill-rule:nonzero;stroke:none;stroke-width:0.352778"
       id="path951" />
    <path
       d="m 104.44123,206.35265 c 0,0.90311 0,1.83903 -3.26496,1.83903 -3.255784,0 -3.255784,-0.93592 -3.255784,-1.83903 0,-0.90417 0,-1.84185 3.255784,-1.84185 0,0 2.74779,0.0536 3.26496,0.0593 z m -3.26496,-11.69352 c -3.755318,0 -6.080829,1.21285 -6.896098,3.60574 -0.06421,0.21025 0.02787,0.34819 0.201789,0.40569 l 3.170766,0.9391 c 0.158398,0.0455 0.333728,-0.0317 0.386998,-0.19438 0.09102,-0.25259 0.345016,-1.03929 3.136545,-1.03929 3.26496,0 3.26496,0.93134 3.26496,1.84715 v 0.99765 c -0.53552,-0.005 -3.21522,-0.0632 -3.21522,-0.0632 -5.999688,0 -7.255577,2.53436 -7.255577,5.19501 0,2.54035 1.255889,5.56013 7.205837,5.56013 5.96195,0 7.20796,-3.01978 7.20796,-5.56013 v -6.12951 c 0,-2.53577 -1.24601,-5.56401 -7.20796,-5.56401"
       style="fill:#204789;fill-opacity:1;fill-rule:nonzero;stroke:none;stroke-width:0.352778"
       id="path955" />
    <path
       d="m 92.218045,207.771 h -4.980869 c -2.403475,0 -2.499431,-1.61749 -2.499431,-2.52836 v -15.33631 c 0,-0.17497 -0.132997,-0.31115 -0.309033,-0.31115 h -3.325636 c -0.173567,0 -0.303036,0.13618 -0.303036,0.31115 v 15.33631 c 0,2.07927 0.693561,6.25087 6.437136,6.25087 h 4.980869 c 0.182033,0 0.316794,-0.13935 0.316794,-0.31185 v -3.0988 c 0,-0.16652 -0.134761,-0.31186 -0.316794,-0.31186"
       style="fill:#204789;fill-opacity:1;fill-rule:nonzero;stroke:none;stroke-width:0.352778"
       id="path959" />
    <path
       d="m 70.96749,194.65895 c -5.947833,0 -7.202311,3.01766 -7.202311,5.56401 v 10.96433 c 0,0.1771 0.148872,0.30622 0.314325,0.30622 h 3.321403 c 0.176036,0 0.315383,-0.12912 0.315383,-0.30622 v -10.96433 c 0,-0.90699 0,-1.84609 3.2512,-1.84609 3.256139,0 3.256139,0.9391 3.256139,1.84609 v 10.96433 c 0,0.1771 0.143228,0.30622 0.318558,0.30622 h 3.329517 c 0.174978,0 0.311503,-0.12912 0.311503,-0.30622 v -10.96433 c 0,-2.54635 -1.252009,-5.56401 -7.215717,-5.56401"
       style="fill:#204789;fill-opacity:1;fill-rule:nonzero;stroke:none;stroke-width:0.352778"
       id="path963" />
  </g>
</svg>
